<svg height='100px' width='100px'  fill="#000000" xmlns="http://www.w3.org/2000/svg" xmlns:xlink="http://www.w3.org/1999/xlink" viewBox="0 0 24 24" version="1.1" x="0px" y="0px"><title>icon/new-window</title><desc>Created with Sketch.</desc><g stroke="none" stroke-width="1" fill="none" fill-rule="evenodd"><path d="M18.2928932,4 L13.5,4 C13.2238576,4 13,3.77614237 13,3.5 C13,3.22385763 13.2238576,3 13.5,3 L19.5,3 C19.7761424,3 20,3.22385763 20,3.5 L20,9.5 C20,9.77614237 19.7761424,10 19.5,10 C19.2238576,10 19,9.77614237 19,9.5 L19,4.70710678 L9.85355339,13.8535534 C9.65829124,14.0488155 9.34170876,14.0488155 9.14644661,13.8535534 C8.95118446,13.6582912 8.95118446,13.3417088 9.14644661,13.1464466 L18.2928932,4 Z M16,18 L16,10.5 C16,10.2238576 16.2238576,10 16.5,10 C16.7761424,10 17,10.2238576 17,10.5 L17,18.5 C17,18.7761424 16.7761424,19 16.5,19 L4.5,19 C4.22385763,19 4,18.7761424 4,18.5 L4,6.5 C4,6.22385763 4.22385763,6 4.5,6 L12.5,6 C12.7761424,6 13,6.22385763 13,6.5 C13,6.77614237 12.7761424,7 12.5,7 L5,7 L5,18 L16,18 Z" fill="#000000" fill-rule="nonzero"></path></g></svg>