<svg height='100px' width='100px'  fill="#000000" xmlns="http://www.w3.org/2000/svg" data-name="Layer 1" viewBox="0 0 512 512" x="0px" y="0px"><title>Software</title><path d="M476.08,24H35.919A7.627,7.627,0,0,0,28,31.635v356.1A8.164,8.164,0,0,0,35.919,396H186.613l-14.207,43H135.6c-4.418,0-7.6,3.677-7.6,8.1v33.27A7.359,7.359,0,0,0,135.6,488H376.4a7.359,7.359,0,0,0,7.6-7.635V447.1c0-4.418-3.178-8.1-7.6-8.1h-36.81l-14.207-43H476.08a8.165,8.165,0,0,0,7.92-8.268V31.635A7.628,7.628,0,0,0,476.08,24ZM368,455v17H144V455ZM189.244,439l14.207-43h105.1l14.207,43ZM468,380H44V328H468Zm0-68H44V40H468Z"></path><path d="M146.057,207.347l18.1,1.758A92.886,92.886,0,0,0,173,230.188l-11.542,13.9a8,8,0,0,0,.5,10.769l22.643,22.6a8,8,0,0,0,10.755.5L209.3,266.387a96.052,96.052,0,0,0,21.081,8.9l1.756,18.307A8.157,8.157,0,0,0,240.1,301H272.18a8.158,8.158,0,0,0,7.963-7.407L281.9,275.38a93.134,93.134,0,0,0,21.123-8.914l13.9,11.5a8,8,0,0,0,10.758-.506l22.647-22.607a8,8,0,0,0,.507-10.772L339.29,230.158a96.391,96.391,0,0,0,8.9-21.056l17.765-1.756A7.852,7.852,0,0,0,373,199.384V167.346a7.851,7.851,0,0,0-7.057-7.963l-18.095-1.758A92.886,92.886,0,0,0,339,136.542l11.542-13.895a8,8,0,0,0-.462-10.734l-22.367-22.6a8,8,0,0,0-10.789-.53l-13.943,11.562a96.06,96.06,0,0,0-21.081-8.9l-1.755-18.172A8.039,8.039,0,0,0,272.18,66H240.1a8.039,8.039,0,0,0-7.963,7.272l-1.756,18.145a93.05,93.05,0,0,0-21.123,8.881l-13.9-11.523a8,8,0,0,0-10.758.5l-22.648,22.6a8,8,0,0,0-.507,10.769l11.548,13.928a96.319,96.319,0,0,0-8.895,21.048l-18.034,1.761A7.851,7.851,0,0,0,139,167.346v32.038A7.851,7.851,0,0,0,146.057,207.347ZM155,174.61l16.4-1.6a7.9,7.9,0,0,0,6.953-6.227,80.464,80.464,0,0,1,11.186-26.553,8,8,0,0,0-.567-9.473l-10.545-12.7,12.326-12.306,12.713,10.544a8,8,0,0,0,9.518.514,77.267,77.267,0,0,1,26.5-11.142,8.049,8.049,0,0,0,6.281-7.093L247.359,82h17.559l1.6,16.567a8.023,8.023,0,0,0,6.3,7.074,80.149,80.149,0,0,1,26.573,11.208,8,8,0,0,0,9.43-.567L321.5,105.77l12.118,12.244-10.562,12.74a8,8,0,0,0-.5,9.536,77.288,77.288,0,0,1,11.181,26.457,7.8,7.8,0,0,0,6.873,6.26L357,174.61v17.518l-16.127,1.6a7.9,7.9,0,0,0-6.944,6.226A80.467,80.467,0,0,1,322.742,226.5a8,8,0,0,0,.568,9.472l10.544,12.705-12.327,12.306-12.713-10.544a8,8,0,0,0-9.518-.514,77.246,77.246,0,0,1-26.5,11.142,8.205,8.205,0,0,0-6.28,7.228l-1.6,16.7H247.359l-1.6-16.7a8.1,8.1,0,0,0-6.3-7.142,80.246,80.246,0,0,1-26.573-11.241,8,8,0,0,0-9.431.55L190.742,261l-12.331-12.311,10.534-12.708a8,8,0,0,0,.5-9.537,77.288,77.288,0,0,1-11.181-26.457,7.8,7.8,0,0,0-6.873-6.261l-16.4-1.6Z"></path><path d="M256.023,244.761a61.4,61.4,0,1,0-61.475-61.4A61.5,61.5,0,0,0,256.023,244.761Zm0-106.792a45.4,45.4,0,1,1-45.475,45.4A45.487,45.487,0,0,1,256.023,137.969Z"></path></svg>