<?xml version="1.0" encoding="UTF-8" standalone="no"?>
<svg
   xmlns:sketch="http://www.bohemiancoding.com/sketch/ns"
   xmlns:dc="http://purl.org/dc/elements/1.1/"
   xmlns:cc="http://creativecommons.org/ns#"
   xmlns:rdf="http://www.w3.org/1999/02/22-rdf-syntax-ns#"
   xmlns:svg="http://www.w3.org/2000/svg"
   xmlns="http://www.w3.org/2000/svg"
   xmlns:sodipodi="http://sodipodi.sourceforge.net/DTD/sodipodi-0.dtd"
   xmlns:inkscape="http://www.inkscape.org/namespaces/inkscape"
   height="66"
   width="459.38754"
   fill="#000000"
   version="1.1"
   x="0px"
   y="0px"
   viewBox="0 0 459.38754 66"
   enable-background="new 0 0 100 100"
   xml:space="preserve"
   id="svg12"
   sodipodi:docname="compose.svg"
   inkscape:version="1.0.1 (0767f8302a, 2020-10-17)"><metadata
     id="metadata18"><rdf:RDF><cc:Work
         rdf:about=""><dc:format>image/svg+xml</dc:format><dc:type
           rdf:resource="http://purl.org/dc/dcmitype/StillImage" /><dc:title>Eduacation</dc:title></cc:Work></rdf:RDF></metadata><defs
     id="defs16" /><sodipodi:namedview
     pagecolor="#ffffff"
     bordercolor="#666666"
     borderopacity="1"
     objecttolerance="10"
     gridtolerance="10"
     guidetolerance="10"
     inkscape:pageopacity="0"
     inkscape:pageshadow="2"
     inkscape:window-width="1920"
     inkscape:window-height="1015"
     id="namedview14"
     showgrid="false"
     inkscape:zoom="1.5026019"
     inkscape:cx="330.36108"
     inkscape:cy="22.905508"
     inkscape:window-x="0"
     inkscape:window-y="0"
     inkscape:window-maximized="1"
     inkscape:current-layer="svg12"
     inkscape:document-rotation="0"
     fit-margin-top="0"
     fit-margin-left="0"
     fit-margin-right="0"
     fit-margin-bottom="0" /><title
     id="title2">Eduacation</title><desc
     id="desc4">Created with Sketch.</desc><g
     sketch:type="MSPage"
     id="g10"
     transform="translate(-5.0121249,-17.05)"><g
       sketch:type="MSArtboardGroup"
       id="g8"
       style="stroke-width:0.3;stroke-miterlimit:4;stroke-dasharray:none"><path
         sketch:type="MSShapeGroup"
         d="m 75.9,69.7 -25.5,9.8 v 0 L 25.8,69.7 v 0 V 48 c 0,-0.6 -0.3,-1.2 -0.9,-1.5 L 7.5,36.9 7.4,39.9 51.1,20.2 h -1.4 l 41.9,19.2 v 0 28.7 c 0,0.9 0.7,1.7 1.7,1.7 0.9,0 1.7,-0.7 1.7,-1.7 V 38.4 c 0,-0.7 -0.4,-1.2 -1,-1.5 L 51.1,17.2 C 50.7,17 50.2,17 49.7,17.2 L 6,36.9 c -1.3,0.6 -1.3,2.3 -0.1,3 L 23.4,49.5 22.5,48 v 22.8 c 0,0.7 0.4,1.3 1.1,1.6 l 26.3,10.5 c 0.4,0.2 0.8,0.2 1.2,0 L 78.2,72.4 c 0.6,-0.2 1.1,-0.9 1.1,-1.6 V 48 c 0,-1.2 -1.2,-2 -2.3,-1.6 L 50.5,56.8 v 0 L 36.7,50.9 c -0.8,-0.4 -1.8,0 -2.2,0.9 -0.4,0.9 0,1.8 0.9,2.2 l 14.4,6.1 c 0.4,0.2 0.9,0.2 1.3,0 L 76,50.9"
         id="path6"
         style="stroke-width:0.3;stroke-miterlimit:4;stroke-dasharray:none" /></g></g><path
     id="path3024"
     d="m 60.446233,20.661726 -0.330179,-0.06152 c -0.08426,-0.01542 -0.222092,-0.04112 -0.30635,-0.05685 l -2.815088,-0.523614 c -0.08426,-0.01573 -0.176148,-0.09469 -0.204182,-0.17568 l -1.058286,-2.4684 c -0.0394,-0.07616 -0.03177,-0.196083 0.01667,-0.266947 l 1.645133,-2.397225 c 0.04844,-0.07071 0.127866,-0.18627 0.176147,-0.256979 l 0.190164,-0.276914 c 0.04813,-0.07055 0.03831,-0.177861 -0.02227,-0.238445 L 57.500637,13.701797 57.280414,13.481573 56.592177,12.793337 56.371954,12.573114 55.684029,11.884877 55.46365,11.664498 55.226139,11.427143 c -0.06043,-0.06058 -0.167893,-0.07055 -0.238445,-0.02212 l -0.276914,0.190009 c -0.07071,0.04859 -0.186271,0.127711 -0.256824,0.176303 l -2.44862,1.680487 c -0.07055,0.04859 -0.191255,0.05716 -0.268193,0.01947 l -2.393019,-0.979479 c -0.0813,-0.02694 -0.160417,-0.117899 -0.176303,-0.202001 L 48.621935,9.355891 c -0.01557,-0.08426 -0.04143,-0.222093 -0.05685,-0.306195 l -0.06168,-0.330179 c -0.01557,-0.0841 -0.09859,-0.152941 -0.18409,-0.152941 h -3.552696 c -0.08566,0 -0.168516,0.06884 -0.18409,0.153097 l -0.06152,0.330023 c -0.01573,0.0841 -0.04127,0.221937 -0.05685,0.306195 l -0.546042,2.933921 c -0.01573,0.0841 -0.09485,0.175057 -0.176303,0.202001 l -2.393019,0.979479 c -0.07694,0.03769 -0.19764,0.02912 -0.268193,-0.01947 l -2.44862,-1.680487 c -0.07071,-0.04859 -0.186271,-0.12771 -0.256824,-0.176303 l -0.276914,-0.190009 c -0.07055,-0.04844 -0.178016,-0.03847 -0.238445,0.02212 l -0.237511,0.237355 -0.220223,0.220379 -0.688237,0.688392 -0.220223,0.220224 -0.688081,0.68808 -0.220223,0.220224 -0.237355,0.237355 c -0.06058,0.06058 -0.07055,0.167893 -0.02212,0.238445 l 0.190009,0.276914 c 0.04828,0.07071 0.127711,0.186271 0.176147,0.256979 l 1.645133,2.397225 c 0.04844,0.07086 0.05591,0.190787 0.01667,0.266947 l -1.058131,2.4684 c -0.02819,0.08099 -0.120079,0.15995 -0.204337,0.17568 l -2.815088,0.523614 c -0.08426,0.01573 -0.222092,0.04143 -0.30635,0.05685 l -0.334851,0.06152 c -0.08426,0.01589 -0.153098,0.09859 -0.153098,0.184402 l 1.56e-4,0.335786 v 3.216598 c 0,0.08566 0.069,0.168672 0.153253,0.184246 l 0.330023,0.06136 c 0.08426,0.01573 0.222093,0.04143 0.306351,0.05716 l 2.730362,0.50804 c 0.08426,0.01557 0.174279,0.09531 0.199977,0.177081 l 1.050966,2.625703 c 0.03769,0.07678 0.02881,0.197796 -0.01978,0.268348 l -1.546079,2.253005 c -0.04859,0.07071 -0.128022,0.186271 -0.176303,0.256667 l -0.190164,0.277226 c -0.04828,0.07055 -0.03847,0.177861 0.02211,0.238446 l 0.237511,0.237355 0.220224,0.220223 0.688547,0.688548 0.220224,0.220223 0.687925,0.687769 0.220223,0.220379 0.237666,0.237355 c 0.06043,0.06043 0.167893,0.0704 0.238446,0.02196 l 0.276758,-0.189853 c 0.07055,-0.04844 0.186115,-0.127866 0.256824,-0.176147 l 2.204101,-1.512594 c 0.07055,-0.04844 0.188762,-0.05233 0.26243,-0.009 l 0.457578,0.257602 c 0.07538,0.04049 0.199509,0.105439 0.275824,0.144375 l 0.473932,0.242651 c 0.07647,0.03894 0.165556,0.0061 0.198419,-0.07304 l 0.203402,-0.491843 c 0.03286,-0.07912 0.08644,-0.208698 0.119301,-0.287816 l 1.912079,-4.620794 c 0.03286,-0.07881 0.08644,-0.208542 0.119301,-0.287505 l 0.135342,-0.327375 c 0.03286,-0.07912 -1.56e-4,-0.180353 -0.0732,-0.225052 l -0.302145,-0.184869 c -0.05576,-0.03395 -0.131604,-0.09267 -0.190943,-0.146244 -1.090058,-0.698204 -1.813026,-1.919244 -1.813026,-3.309578 0,-2.169837 1.758982,-3.928819 3.928664,-3.928819 2.169837,0 3.928819,1.758982 3.928819,3.928819 0,1.39049 -0.723123,2.611374 -1.813181,3.309578 -0.05918,0.05358 -0.135031,0.112136 -0.190943,0.146244 l -0.30199,0.184869 c -0.07289,0.0447 -0.105906,0.145933 -0.0732,0.225052 l 0.135498,0.327375 c 0.03271,0.07912 0.08628,0.208698 0.118989,0.287505 l 1.91208,4.620794 c 0.03286,0.07912 0.08644,0.208698 0.119144,0.287816 L 50.57714,32.5236 c 0.03286,0.07912 0.121948,0.11198 0.198419,0.07304 l 0.473775,-0.242651 c 0.07663,-0.03894 0.2006,-0.103881 0.27598,-0.144375 l 0.457423,-0.257602 c 0.07382,-0.0433 0.192033,-0.0394 0.262586,0.009 l 2.204101,1.512594 c 0.07055,0.04828 0.186426,0.127711 0.256667,0.176147 l 0.27707,0.189853 c 0.07055,0.04844 0.178017,0.03847 0.238446,-0.02196 l 0.237355,-0.237355 0.220379,-0.220379 0.687925,-0.68808 0.220223,-0.220224 0.688548,-0.688236 0.220223,-0.220223 0.237667,-0.237355 c 0.06043,-0.06043 0.0704,-0.167893 0.02196,-0.238446 l -0.190165,-0.277226 c -0.04844,-0.0704 -0.127866,-0.185959 -0.176303,-0.256667 L 55.843184,28.28045 c -0.04844,-0.07055 -0.05747,-0.19141 -0.01978,-0.268348 l 1.050966,-2.625703 c 0.02585,-0.08177 0.115874,-0.161507 0.199976,-0.177081 l 2.730519,-0.50804 c 0.08426,-0.01573 0.222092,-0.04143 0.30635,-0.05716 l 0.329867,-0.06136 c 0.08426,-0.01557 0.153098,-0.09859 0.153098,-0.184246 v -1.931703 l 1.55e-4,-0.973406 v -0.311489 l 1.56e-4,-0.335786 c 9.35e-4,-0.08582 -0.0679,-0.168516 -0.152163,-0.184402"
     fill="#18284f"
     inkscape:connector-curvature="0"
     style="stroke:#000000;stroke-width:2.156;stroke-miterlimit:4;stroke-dasharray:none;stroke-opacity:1" /><path
     id="path3028"
     d="m 56.205457,20.66484 c -0.272554,-1.252033 -0.780905,-2.415914 -1.478175,-3.441338 l 2.114081,-3.0811 -0.90846,-0.908304 -0.908459,-0.908771 -3.121906,2.142582 C 50.888484,13.81269 49.748431,13.335955 48.5249,13.087231 l 3.11e-4,-1.56e-4 -0.696023,-3.74177 h -2.569634 l -0.69618,3.74177 4.67e-4,1.56e-4 c -1.223531,0.248724 -2.363739,0.725459 -3.377794,1.380678 l -3.121593,-2.142582 -0.908616,0.908771 -0.90846,0.908304 2.114237,3.0811 c -0.697581,1.025424 -1.205777,2.189305 -1.47833,3.441338 l -3.616396,0.672662 1.56e-4,1.285051 v 1.284583 l 3.549581,0.66067 c 0.239535,1.311215 0.73823,2.531321 1.440172,3.606739 l -2.009575,2.928158 0.908615,0.90846 0.90846,0.90846 2.889534,-1.982944 c 0.349803,0.240003 0.71518,0.458669 1.095198,0.653039 l 2.031379,-4.908455 c -1.359341,-0.831054 -2.26671,-2.329008 -2.26671,-4.039242 0,-2.61262 2.11813,-4.73075 4.730905,-4.73075 2.612309,0 4.730594,2.11813 4.730594,4.73075 0,1.710234 -0.907214,3.208188 -2.266866,4.039242 l 2.031224,4.908455 c 0.380018,-0.19437 0.745395,-0.413036 1.095198,-0.653039 l 2.88969,1.982944 0.908459,-0.90846 0.908771,-0.90846 -2.011133,-2.928158 c 0.701787,-1.075418 1.200637,-2.295524 1.440329,-3.606739 l 3.54958,-0.66067 V 21.337502 L 56.204055,20.66484 Z"
     fill="#405fa8"
     inkscape:connector-curvature="0"
     style="fill:#f9f9f9;stroke-width:0.155745" /><path
     d="m 123.196,10.828312 v 8.900606 h -11.56192 c -1.97134,0 -2.95701,0.9561 -2.95701,2.868301 v 4.465088 h -9.46244 v -5.11563 c 0,-7.412243 -1.22563,-11.665203 7.05205,-11.485628 z M 99.21463,55.47919 98.9057,38.702959 c -0.1372,-7.450407 -0.50014,-9.830614 7.77949,-9.842581 l 16.51081,-0.02386 v 8.930172 h -11.56192 c -1.97134,0 -2.95701,0.975814 -2.95701,2.927441 V 55.47919 Z"
     style="font-size:60.5596px;line-height:1.25;font-family:'New Shape';-inkscape-font-specification:'New Shape';stroke-width:1.51399"
     id="path17"
     sodipodi:nodetypes="ccssccssccssccsscc" /><path
     d="m 150.03763,47.199557 q 5.85488,0 9.84685,-3.932826 3.99197,-3.962395 3.99197,-10.11298 0,-6.180154 -4.02154,-10.11298 -4.02154,-3.932826 -9.84685,-3.932826 -5.85488,0 -9.87642,3.932826 -3.99197,3.932826 -3.99197,10.11298 0,6.239295 4.02154,10.142551 4.11025,3.903255 9.87642,3.903255 z m -0.0296,8.871035 q -10.20169,0 -16.76626,-6.741986 -6.56456,-6.741987 -6.56456,-16.233995 0,-9.551148 6.328,-15.879153 7.00812,-6.978548 17.09153,-6.978548 10.14255,0 16.91411,7.008118 6.328,6.534996 6.328,15.938293 0,9.373728 -6.59413,16.145285 -6.56457,6.741986 -16.73669,6.741986 z"
     style="font-size:60.5596px;line-height:1.25;font-family:'New Shape';-inkscape-font-specification:'New Shape';stroke-width:1.51399"
     id="path19" /><path
     d="m 188.9143,56.070592 q -9.55115,0 -15.96787,-8.693614 l 7.21511,-5.115631 q 4.08068,4.93821 9.87642,4.93821 3.63713,0 5.79574,-1.803777 2.15862,-1.833347 2.15862,-4.317237 0,-3.045722 -4.13981,-4.760789 l -4.52423,-1.862918 q -10.5861,-4.346807 -10.5861,-12.892571 0,-5.470472 4.6425,-8.900605 3.25272,-2.42475 8.39792,-2.42475 7.00812,0 12.36031,6.121014 l -6.56457,5.381762 q -2.12905,-2.779591 -5.55918,-2.779591 -3.99197,0 -3.99197,2.63174 0,2.099479 4.43552,3.932826 l 5.11563,2.129048 q 9.87642,4.110247 9.87642,13.513544 0,5.233911 -4.11025,9.698999 -4.79036,5.20434 -14.43021,5.20434 z"
     style="font-size:60.5596px;line-height:1.25;font-family:'New Shape';-inkscape-font-specification:'New Shape';stroke-width:1.51399"
     id="path21" /><path
     d="m 224.53826,56.070592 q -9.55115,0 -15.96786,-8.693614 l 7.2151,-5.115631 q 4.08068,4.93821 9.87642,4.93821 3.63713,0 5.79575,-1.803777 2.15861,-1.833347 2.15861,-4.317237 0,-3.045722 -4.13981,-4.760789 l -4.52423,-1.862918 q -10.5861,-4.346807 -10.5861,-12.892571 0,-5.470472 4.64251,-8.900605 3.25271,-2.42475 8.39791,-2.42475 7.00812,0 12.36031,6.121014 l -6.56457,5.381762 q -2.12905,-2.779591 -5.55918,-2.779591 -3.99196,0 -3.99196,2.63174 0,2.099479 4.43551,3.932826 l 5.11563,2.129048 q 9.87642,4.110247 9.87642,13.513544 0,5.233911 -4.11024,9.698999 -4.79036,5.20434 -14.43022,5.20434 z"
     style="font-size:60.5596px;line-height:1.25;font-family:'New Shape';-inkscape-font-specification:'New Shape';stroke-width:1.51399"
     id="path23" /><g
     id="g850"
     transform="matrix(0.44166495,0,0,0.3088889,133.5495,20.666347)"><path
       d="M 266.31281,55.47919 V 22.952061 h 8.87103 V 55.47919 Z m 4.49466,-45.833682 q 2.42474,0 3.96239,1.596786 1.53765,1.596786 1.53765,4.021536 0,2.45432 -1.59679,4.051106 -1.65593,1.655927 -4.02154,1.655927 -2.3656,0 -3.96239,-1.685497 -1.56722,-1.715067 -1.56722,-4.051106 0,-2.365609 1.62636,-3.962396 1.65593,-1.626356 4.02154,-1.626356 z"
       style="font-size:60.5596px;line-height:1.25;font-family:'New Shape';-inkscape-font-specification:'New Shape';stroke-width:1.51399"
       id="path25" /><path
       d="M 281.01189,55.47919 V 33.065041 c 0,-7.136255 4.13982,-10.704383 12.41945,-10.704383 4.81007,0.01971 10.48167,0.131972 13.87238,2.990418 3.41042,2.858444 3.55428,8.17723 3.57399,13.302717 V 55.47919 h -8.87104 V 39.156485 c -0.0197,-2.917585 0.53106,-6.032952 -1.16428,-7.41289 -1.67564,-1.37994 -5.09473,-1.103304 -7.44062,-1.103304 -2.3459,0 -3.51885,1.025098 -3.51885,3.075293 V 55.47919 Z"
       style="font-size:60.5596px;line-height:1.25;font-family:'New Shape';-inkscape-font-specification:'New Shape';stroke-width:1.51399"
       id="path27"
       sodipodi:nodetypes="cscccccccsscc" /></g><path
     d="m 290.56081,56.070592 q -9.55115,0 -15.96786,-8.693614 l 7.21511,-5.115631 q 4.08067,4.93821 9.87642,4.93821 3.63712,0 5.79574,-1.803777 2.15862,-1.833347 2.15862,-4.317237 0,-3.045722 -4.13982,-4.760789 l -4.52423,-1.862918 q -10.5861,-4.346807 -10.5861,-12.892571 0,-5.470472 4.64251,-8.900605 3.25271,-2.42475 8.39791,-2.42475 7.00812,0 12.36031,6.121014 l -6.56456,5.381762 q -2.12905,-2.779591 -5.55919,-2.779591 -3.99196,0 -3.99196,2.63174 0,2.099479 4.43552,3.932826 l 5.11563,2.129048 q 9.87642,4.110247 9.87642,13.513544 0,5.233911 -4.11025,9.698999 -4.79036,5.20434 -14.43022,5.20434 z"
     style="font-size:60.5596px;line-height:1.25;font-family:'New Shape';-inkscape-font-specification:'New Shape';stroke-width:1.51399"
     id="path29" /><path
     d="m 329.11219,56.070592 q -6.77156,0 -12.15332,-4.760789 -5.32262,-4.672078 -5.32262,-12.094178 0,-7.362959 5.35219,-12.123748 5.35219,-4.731219 12.12375,-4.731219 6.77156,0 12.15332,4.760789 l -6.0323,5.854884 q -2.51346,-2.33604 -6.12102,-2.33604 -3.66669,0 -6.15058,2.39518 -2.45432,2.336039 -2.45432,6.180154 0,3.991966 2.45432,6.239295 2.5726,2.336039 6.15058,2.336039 3.63713,0 6.15059,-2.395179 l 5.97316,5.943594 q -5.38176,4.731218 -12.12375,4.731218 z"
     style="font-size:60.5596px;line-height:1.25;font-family:'New Shape';-inkscape-font-specification:'New Shape';stroke-width:1.51399"
     id="path31" /><path
     d="m 375.11527,55.47919 h -8.87103 V 39.156485 q 0,-4.317237 -2.54303,-6.416715 -2.54303,-2.099479 -6.03231,-2.099479 v -8.279633 q 7.21511,0 12.30117,4.346808 5.1452,4.317237 5.1452,11.946327 z m -29.86582,0 V 10.828312 h 8.87104 V 55.47919 Z"
     style="font-size:60.5596px;line-height:1.25;font-family:'New Shape';-inkscape-font-specification:'New Shape';stroke-width:1.51399"
     id="path33" /><path
     d="m 397.43268,56.070592 q -7.21511,-0.02957 -12.33074,-4.317237 -5.08606,-4.287667 -5.11563,-11.975897 V 22.952061 h 8.87103 v 16.322705 q 0.0296,4.376377 2.54304,6.446285 2.54303,2.069908 6.06187,2.069908 3.51884,0 3.51884,-3.075292 V 22.952061 h 8.87104 V 45.36621 q 0,10.704382 -12.41945,10.704382 z"
     style="font-size:60.5596px;line-height:1.25;font-family:'New Shape';-inkscape-font-specification:'New Shape';stroke-width:1.51399"
     id="path35" /><path
     d="M 413.68018,55.47919 V 10.828312 h 8.87103 V 55.47919 Z"
     style="font-size:60.5596px;line-height:1.25;font-family:'New Shape';-inkscape-font-specification:'New Shape';stroke-width:1.51399"
     id="path37" /><path
     d="m 457.02192,51.339374 q -5.38176,4.731218 -12.12375,4.731218 -6.77155,0 -12.15332,-4.760789 -5.32262,-4.672078 -5.32262,-12.094178 0,-7.392529 5.35219,-12.123748 5.3522,-4.731219 12.15332,-4.731219 6.15059,0 10.31997,3.134433 4.13982,3.104862 4.13982,8.220493 0,7.185538 -10.17212,10.14255 -2.54303,0.739253 -8.13178,0.739253 v -7.747371 q 9.43286,0 9.43286,-3.282283 0,-1.153235 -1.50807,-2.040338 -1.53765,-0.887104 -4.11025,-0.887104 -3.66669,0 -6.15058,2.39518 -2.45432,2.336039 -2.45432,6.180154 0,3.991966 2.45432,6.239295 2.5726,2.336039 6.15058,2.336039 3.63713,0 6.15059,-2.395179 z"
     style="font-size:60.5596px;line-height:1.25;font-family:'New Shape';-inkscape-font-specification:'New Shape';stroke-width:1.51399"
     id="path39" /></svg>
