<?xml version="1.0" encoding="UTF-8" standalone="no"?>
<svg
   xmlns:sketch="http://www.bohemiancoding.com/sketch/ns"
   xmlns:dc="http://purl.org/dc/elements/1.1/"
   xmlns:cc="http://creativecommons.org/ns#"
   xmlns:rdf="http://www.w3.org/1999/02/22-rdf-syntax-ns#"
   xmlns:svg="http://www.w3.org/2000/svg"
   xmlns="http://www.w3.org/2000/svg"
   xmlns:sodipodi="http://sodipodi.sourceforge.net/DTD/sodipodi-0.dtd"
   xmlns:inkscape="http://www.inkscape.org/namespaces/inkscape"
   height="66"
   width="89.987877"
   fill="#000000"
   version="1.1"
   x="0px"
   y="0px"
   viewBox="0 0 89.987877 66"
   enable-background="new 0 0 100 100"
   xml:space="preserve"
   id="svg12"
   sodipodi:docname="compose nur logo.svg"
   inkscape:version="1.0.1 (0767f8302a, 2020-10-17)"
   inkscape:export-filename="/home/emrich/Videos/foss-schule/compose nur logo.png"
   inkscape:export-xdpi="533.40997"
   inkscape:export-ydpi="533.40997"><metadata
     id="metadata18"><rdf:RDF><cc:Work
         rdf:about=""><dc:format>image/svg+xml</dc:format><dc:type
           rdf:resource="http://purl.org/dc/dcmitype/StillImage" /><dc:title>Eduacation</dc:title></cc:Work></rdf:RDF></metadata><defs
     id="defs16" /><sodipodi:namedview
     pagecolor="#ffffff"
     bordercolor="#666666"
     borderopacity="1"
     objecttolerance="10"
     gridtolerance="10"
     guidetolerance="10"
     inkscape:pageopacity="0"
     inkscape:pageshadow="2"
     inkscape:window-width="1920"
     inkscape:window-height="1015"
     id="namedview14"
     showgrid="false"
     inkscape:zoom="1.0625"
     inkscape:cx="-156.97126"
     inkscape:cy="125.67942"
     inkscape:window-x="0"
     inkscape:window-y="0"
     inkscape:window-maximized="1"
     inkscape:current-layer="svg12"
     inkscape:document-rotation="0"
     fit-margin-top="0"
     fit-margin-left="0"
     fit-margin-right="0"
     fit-margin-bottom="0" /><title
     id="title2">Eduacation</title><desc
     id="desc4">Created with Sketch.</desc><rect
     style="fill:#4186c9;fill-opacity:0.8"
     id="rect212"
     width="247.67715"
     height="231.41191"
     x="-82.677902"
     y="-72.502007" /><g
     sketch:type="MSPage"
     id="g10"
     transform="translate(-5.0121249,-17.05)"><g
       sketch:type="MSArtboardGroup"
       id="g8"
       style="stroke-width:0.3;stroke-miterlimit:4;stroke-dasharray:none"><path
         sketch:type="MSShapeGroup"
         d="m 75.9,69.7 -25.5,9.8 v 0 L 25.8,69.7 v 0 V 48 c 0,-0.6 -0.3,-1.2 -0.9,-1.5 L 7.5,36.9 7.4,39.9 51.1,20.2 h -1.4 l 41.9,19.2 v 0 28.7 c 0,0.9 0.7,1.7 1.7,1.7 0.9,0 1.7,-0.7 1.7,-1.7 V 38.4 c 0,-0.7 -0.4,-1.2 -1,-1.5 L 51.1,17.2 C 50.7,17 50.2,17 49.7,17.2 L 6,36.9 c -1.3,0.6 -1.3,2.3 -0.1,3 L 23.4,49.5 22.5,48 v 22.8 c 0,0.7 0.4,1.3 1.1,1.6 l 26.3,10.5 c 0.4,0.2 0.8,0.2 1.2,0 L 78.2,72.4 c 0.6,-0.2 1.1,-0.9 1.1,-1.6 V 48 c 0,-1.2 -1.2,-2 -2.3,-1.6 L 50.5,56.8 v 0 L 36.7,50.9 c -0.8,-0.4 -1.8,0 -2.2,0.9 -0.4,0.9 0,1.8 0.9,2.2 l 14.4,6.1 c 0.4,0.2 0.9,0.2 1.3,0 L 76,50.9"
         id="path6"
         style="stroke-width:0.3;stroke-miterlimit:4;stroke-dasharray:none" /></g></g><path
     id="path3024"
     d="m 60.446233,20.661726 -0.330179,-0.06152 c -0.08426,-0.01542 -0.222092,-0.04112 -0.30635,-0.05685 l -2.815088,-0.523614 c -0.08426,-0.01573 -0.176148,-0.09469 -0.204182,-0.17568 l -1.058286,-2.4684 c -0.0394,-0.07616 -0.03177,-0.196083 0.01667,-0.266947 l 1.645133,-2.397225 c 0.04844,-0.07071 0.127866,-0.18627 0.176147,-0.256979 l 0.190164,-0.276914 c 0.04813,-0.07055 0.03831,-0.177861 -0.02227,-0.238445 L 57.500637,13.701797 57.280414,13.481573 56.592177,12.793337 56.371954,12.573114 55.684029,11.884877 55.46365,11.664498 55.226139,11.427143 c -0.06043,-0.06058 -0.167893,-0.07055 -0.238445,-0.02212 l -0.276914,0.190009 c -0.07071,0.04859 -0.186271,0.127711 -0.256824,0.176303 l -2.44862,1.680487 c -0.07055,0.04859 -0.191255,0.05716 -0.268193,0.01947 l -2.393019,-0.979479 c -0.0813,-0.02694 -0.160417,-0.117899 -0.176303,-0.202001 L 48.621935,9.355891 c -0.01557,-0.08426 -0.04143,-0.222093 -0.05685,-0.306195 l -0.06168,-0.330179 c -0.01557,-0.0841 -0.09859,-0.152941 -0.18409,-0.152941 h -3.552696 c -0.08566,0 -0.168516,0.06884 -0.18409,0.153097 l -0.06152,0.330023 c -0.01573,0.0841 -0.04127,0.221937 -0.05685,0.306195 l -0.546042,2.933921 c -0.01573,0.0841 -0.09485,0.175057 -0.176303,0.202001 l -2.393019,0.979479 c -0.07694,0.03769 -0.19764,0.02912 -0.268193,-0.01947 l -2.44862,-1.680487 c -0.07071,-0.04859 -0.186271,-0.12771 -0.256824,-0.176303 l -0.276914,-0.190009 c -0.07055,-0.04844 -0.178016,-0.03847 -0.238445,0.02212 l -0.237511,0.237355 -0.220223,0.220379 -0.688237,0.688392 -0.220223,0.220224 -0.688081,0.68808 -0.220223,0.220224 -0.237355,0.237355 c -0.06058,0.06058 -0.07055,0.167893 -0.02212,0.238445 l 0.190009,0.276914 c 0.04828,0.07071 0.127711,0.186271 0.176147,0.256979 l 1.645133,2.397225 c 0.04844,0.07086 0.05591,0.190787 0.01667,0.266947 l -1.058131,2.4684 c -0.02819,0.08099 -0.120079,0.15995 -0.204337,0.17568 l -2.815088,0.523614 c -0.08426,0.01573 -0.222092,0.04143 -0.30635,0.05685 l -0.334851,0.06152 c -0.08426,0.01589 -0.153098,0.09859 -0.153098,0.184402 l 1.56e-4,0.335786 v 3.216598 c 0,0.08566 0.069,0.168672 0.153253,0.184246 l 0.330023,0.06136 c 0.08426,0.01573 0.222093,0.04143 0.306351,0.05716 l 2.730362,0.50804 c 0.08426,0.01557 0.174279,0.09531 0.199977,0.177081 l 1.050966,2.625703 c 0.03769,0.07678 0.02881,0.197796 -0.01978,0.268348 l -1.546079,2.253005 c -0.04859,0.07071 -0.128022,0.186271 -0.176303,0.256667 l -0.190164,0.277226 c -0.04828,0.07055 -0.03847,0.177861 0.02211,0.238446 l 0.237511,0.237355 0.220224,0.220223 0.688547,0.688548 0.220224,0.220223 0.687925,0.687769 0.220223,0.220379 0.237666,0.237355 c 0.06043,0.06043 0.167893,0.0704 0.238446,0.02196 l 0.276758,-0.189853 c 0.07055,-0.04844 0.186115,-0.127866 0.256824,-0.176147 l 2.204101,-1.512594 c 0.07055,-0.04844 0.188762,-0.05233 0.26243,-0.009 l 0.457578,0.257602 c 0.07538,0.04049 0.199509,0.105439 0.275824,0.144375 l 0.473932,0.242651 c 0.07647,0.03894 0.165556,0.0061 0.198419,-0.07304 l 0.203402,-0.491843 c 0.03286,-0.07912 0.08644,-0.208698 0.119301,-0.287816 l 1.912079,-4.620794 c 0.03286,-0.07881 0.08644,-0.208542 0.119301,-0.287505 l 0.135342,-0.327375 c 0.03286,-0.07912 -1.56e-4,-0.180353 -0.0732,-0.225052 l -0.302145,-0.184869 c -0.05576,-0.03395 -0.131604,-0.09267 -0.190943,-0.146244 -1.090058,-0.698204 -1.813026,-1.919244 -1.813026,-3.309578 0,-2.169837 1.758982,-3.928819 3.928664,-3.928819 2.169837,0 3.928819,1.758982 3.928819,3.928819 0,1.39049 -0.723123,2.611374 -1.813181,3.309578 -0.05918,0.05358 -0.135031,0.112136 -0.190943,0.146244 l -0.30199,0.184869 c -0.07289,0.0447 -0.105906,0.145933 -0.0732,0.225052 l 0.135498,0.327375 c 0.03271,0.07912 0.08628,0.208698 0.118989,0.287505 l 1.91208,4.620794 c 0.03286,0.07912 0.08644,0.208698 0.119144,0.287816 L 50.57714,32.5236 c 0.03286,0.07912 0.121948,0.11198 0.198419,0.07304 l 0.473775,-0.242651 c 0.07663,-0.03894 0.2006,-0.103881 0.27598,-0.144375 l 0.457423,-0.257602 c 0.07382,-0.0433 0.192033,-0.0394 0.262586,0.009 l 2.204101,1.512594 c 0.07055,0.04828 0.186426,0.127711 0.256667,0.176147 l 0.27707,0.189853 c 0.07055,0.04844 0.178017,0.03847 0.238446,-0.02196 l 0.237355,-0.237355 0.220379,-0.220379 0.687925,-0.68808 0.220223,-0.220224 0.688548,-0.688236 0.220223,-0.220223 0.237667,-0.237355 c 0.06043,-0.06043 0.0704,-0.167893 0.02196,-0.238446 l -0.190165,-0.277226 c -0.04844,-0.0704 -0.127866,-0.185959 -0.176303,-0.256667 L 55.843184,28.28045 c -0.04844,-0.07055 -0.05747,-0.19141 -0.01978,-0.268348 l 1.050966,-2.625703 c 0.02585,-0.08177 0.115874,-0.161507 0.199976,-0.177081 l 2.730519,-0.50804 c 0.08426,-0.01573 0.222092,-0.04143 0.30635,-0.05716 l 0.329867,-0.06136 c 0.08426,-0.01557 0.153098,-0.09859 0.153098,-0.184246 v -1.931703 l 1.55e-4,-0.973406 v -0.311489 l 1.56e-4,-0.335786 c 9.35e-4,-0.08582 -0.0679,-0.168516 -0.152163,-0.184402"
     fill="#18284f"
     inkscape:connector-curvature="0"
     style="stroke:#000000;stroke-width:2.156;stroke-miterlimit:4;stroke-dasharray:none;stroke-opacity:1" /><path
     id="path3028"
     d="m 56.205457,20.66484 c -0.272554,-1.252033 -0.780905,-2.415914 -1.478175,-3.441338 l 2.114081,-3.0811 -0.90846,-0.908304 -0.908459,-0.908771 -3.121906,2.142582 C 50.888484,13.81269 49.748431,13.335955 48.5249,13.087231 l 3.11e-4,-1.56e-4 -0.696023,-3.74177 h -2.569634 l -0.69618,3.74177 4.67e-4,1.56e-4 c -1.223531,0.248724 -2.363739,0.725459 -3.377794,1.380678 l -3.121593,-2.142582 -0.908616,0.908771 -0.90846,0.908304 2.114237,3.0811 c -0.697581,1.025424 -1.205777,2.189305 -1.47833,3.441338 l -3.616396,0.672662 1.56e-4,1.285051 v 1.284583 l 3.549581,0.66067 c 0.239535,1.311215 0.73823,2.531321 1.440172,3.606739 l -2.009575,2.928158 0.908615,0.90846 0.90846,0.90846 2.889534,-1.982944 c 0.349803,0.240003 0.71518,0.458669 1.095198,0.653039 l 2.031379,-4.908455 c -1.359341,-0.831054 -2.26671,-2.329008 -2.26671,-4.039242 0,-2.61262 2.11813,-4.73075 4.730905,-4.73075 2.612309,0 4.730594,2.11813 4.730594,4.73075 0,1.710234 -0.907214,3.208188 -2.266866,4.039242 l 2.031224,4.908455 c 0.380018,-0.19437 0.745395,-0.413036 1.095198,-0.653039 l 2.88969,1.982944 0.908459,-0.90846 0.908771,-0.90846 -2.011133,-2.928158 c 0.701787,-1.075418 1.200637,-2.295524 1.440329,-3.606739 l 3.54958,-0.66067 V 21.337502 L 56.204055,20.66484 Z"
     fill="#405fa8"
     inkscape:connector-curvature="0"
     style="fill:#f9f9f9;stroke-width:0.155745" /></svg>
