<svg height='100px' width='100px'  fill="#000000" xmlns="http://www.w3.org/2000/svg" xmlns:xlink="http://www.w3.org/1999/xlink" version="1.1" x="0px" y="0px" viewBox="0 0 100 100" style="enable-background:new 0 0 100 100;" xml:space="preserve"><path d="M50,11.8c10,0,19.4,3.8,26.5,10.8c7.1,6.9,11.2,16.2,11.5,26.1l0,39.1l-38.3,0C28.9,87.6,12,70.5,12,49.8  C12,28.8,29,11.8,50,11.8 M50,4.8c-24.9,0-45,20.1-45,45c0,24.7,19.9,44.8,44.6,45l45.4,0l0-46.2C94.3,24.2,74.4,4.8,50,4.8L50,4.8z  "></path><g><path d="M53.5,34.1c0,1-0.4,1.9-1.1,2.7c-0.7,0.7-1.6,1.1-2.6,1.1c-0.5,0-0.9-0.1-1.4-0.3c-0.4-0.2-0.8-0.5-1.2-0.8   c-0.3-0.3-0.6-0.7-0.8-1.2c-0.2-0.5-0.3-0.9-0.3-1.5c0-0.5,0.1-0.9,0.3-1.3c0.2-0.4,0.5-0.8,0.8-1.2c0.3-0.3,0.7-0.6,1.2-0.8   c0.4-0.2,0.9-0.3,1.4-0.3c0.5,0,0.9,0.1,1.4,0.3c0.4,0.2,0.8,0.5,1.2,0.8s0.6,0.7,0.8,1.1C53.4,33.1,53.5,33.6,53.5,34.1z    M53.1,64.6c0,1.1-0.3,2-0.9,2.6c-0.6,0.7-1.4,1-2.4,1c-1,0-1.8-0.3-2.4-1c-0.6-0.7-0.9-1.5-0.9-2.6v-18c0-1.1,0.3-2,0.9-2.6   c0.6-0.7,1.4-1,2.4-1c1,0,1.8,0.3,2.4,1c0.6,0.7,0.9,1.5,0.9,2.6V64.6z"></path></g></svg>